<?xml version="1.0" encoding="UTF-8" standalone="no"?>
<svg
   width="1000"
   height="1000"
   viewBox="0 0 1000 1000"
   version="1.1"
   id="svg3"
   sodipodi:docname="DB_logo_C_hexagon_rounded_signika_noclaim.svg"
   inkscape:version="1.4.2 (ebf0e94, 2025-05-08)"
   inkscape:export-filename="favicon.png"
   inkscape:export-xdpi="10.666667"
   inkscape:export-ydpi="10.666667"
   xmlns:inkscape="http://www.inkscape.org/namespaces/inkscape"
   xmlns:sodipodi="http://sodipodi.sourceforge.net/DTD/sodipodi-0.dtd"
   xmlns="http://www.w3.org/2000/svg"
   xmlns:svg="http://www.w3.org/2000/svg">
  <sodipodi:namedview
     id="namedview3"
     pagecolor="#ffffff"
     bordercolor="#000000"
     borderopacity="0.25"
     inkscape:showpageshadow="2"
     inkscape:pageopacity="0.0"
     inkscape:pagecheckerboard="0"
     inkscape:deskcolor="#d1d1d1"
     showguides="true"
     inkscape:zoom="0.40292657"
     inkscape:cx="1803.0581"
     inkscape:cy="433.08139"
     inkscape:window-width="2560"
     inkscape:window-height="1369"
     inkscape:window-x="-8"
     inkscape:window-y="-8"
     inkscape:window-maximized="1"
     inkscape:current-layer="svg3"
     showgrid="false">
    <sodipodi:guide
       position="1275.6667,500"
       orientation="0,1"
       id="guide4"
       inkscape:locked="false"
       inkscape:label=""
       inkscape:color="rgb(0,134,229)" />
  </sodipodi:namedview>
  <defs
     id="defs2">
    <style
       type="text/css"
       id="style1"><![CDATA[
      @import url('https://fonts.googleapis.com/css2?family=Signika:wght@600;700;800&display=swap');
      .signika { font-family: 'Signika', sans-serif; }
    ]]></style>
    <linearGradient
       id="g1"
       x1="0"
       y1="0"
       x2="1"
       y2="1">
      <stop
         offset="0%"
         stop-color="#000000"
         id="stop1" />
      <stop
         offset="100%"
         stop-color="#666666"
         id="stop2" />
    </linearGradient>
  </defs>
  <!-- Rounded Hexagon -->
  <path
     d="m 500,98.353123 q 23.54016,11.410427 353.10244,173.438427 11.77008,11.41042 11.77008,22.82084 v 410.77522 q 0,11.41042 -11.77008,22.82085 Q 523.54016,890.23646 500,901.64688 476.45984,890.23646 146.89756,728.20846 135.12748,716.79803 135.12748,705.38761 V 294.61239 q 0,-11.41042 11.77008,-22.82084 Q 476.45984,109.76355 500,98.353123 Z"
     fill="none"
     stroke="#000000"
     stroke-width="32.4488"
     id="path2" />
  <!-- DB Text -->
  <path
     style="font-weight:500;font-size:380px;font-family:Signika, sans-serif;-inkscape-font-specification:'Signika, sans-serif Medium';dominant-baseline:middle;text-anchor:middle;stroke-width:1.15889"
     d="m 479.42581,499.7832 q 0,25.36536 -3.57811,48.56275 -3.35447,23.1974 -13.64152,43.35961 -10.28705,20.16223 -30.86116,36.20528 -9.83978,7.80472 -23.70494,12.79107 -13.86516,4.76956 -28.40121,7.15435 -14.53605,2.16797 -26.61215,2.16797 -18.33779,0 -33.99199,-0.2168 -15.65421,-0.2168 -31.75568,-0.65039 -15.87784,-0.4336 -35.33379,-0.86719 l -3.13084,-2.81838 V 354.09493 l 3.13084,-2.81838 q 19.23232,-0.65039 35.11015,-0.86719 16.10148,-0.43359 31.75568,-0.43359 15.87784,0 34.21563,0 12.0761,0 26.61215,2.16798 14.53605,2.16798 28.40121,7.15433 14.08879,4.76956 23.70494,12.57429 20.35047,16.04305 30.63752,36.20527 10.28706,20.16221 13.86516,43.3596 3.57811,23.19739 3.57811,48.34596 z m -54.34247,0 q 0,-18.86142 -2.68358,-38.15645 -2.45995,-19.29503 -10.06342,-35.33808 -7.37984,-16.04305 -21.91589,-26.01576 -14.31242,-9.97271 -38.01736,-9.97271 -13.41789,0 -25.27037,0 -11.62884,-0.2168 -26.38852,-0.4336 v 219.39961 q 14.75968,0 26.38852,0.2168 11.85248,0 25.27037,0 23.70494,0 38.01736,-9.97271 14.53605,-9.97271 21.91589,-26.23257 7.60347,-16.25986 10.06342,-35.55488 2.68358,-19.29503 2.68358,-37.93965 z M 543.16098,351.27655 q 24.8231,-0.43359 48.52805,-0.86719 23.92857,-0.43359 46.29173,-0.43359 32.6502,0 54.56609,9.10551 22.13953,9.10552 33.3211,26.66616 11.18158,17.34384 11.18158,42.49241 0,16.25986 -7.60347,30.35173 -7.37984,14.09186 -20.35047,23.19739 -12.97063,9.10552 -29.743,10.8399 v -6.50394 q 18.56142,0.65039 35.11016,11.2735 16.54873,10.4063 26.83578,27.96694 10.28705,17.56064 10.28705,39.02365 0,25.36537 -11.62884,44.66039 -11.62884,19.29503 -35.55741,29.91813 -23.70495,10.6231 -60.38052,10.6231 -26.83579,0 -50.98799,-0.65039 -24.15221,-0.4336 -49.86984,-0.65039 l -3.13084,-2.81838 V 354.09493 Z m 48.75168,261.02483 q 13.64152,-0.2168 26.38852,-0.2168 12.97063,-0.21679 24.59947,-0.21679 17.21963,0 27.95394,-4.55276 10.95795,-4.76956 16.77237,-12.35749 6.03805,-7.58793 8.27437,-16.25985 2.45994,-8.88872 2.45994,-16.69345 0,-10.6231 -4.91989,-22.3302 -4.91989,-11.70709 -17.66689,-19.94542 -12.52337,-8.23832 -35.33379,-8.23832 h -68.87851 v -38.37325 h 64.40588 q 19.90321,0 30.41389,-6.50394 10.51069,-6.72074 14.53605,-16.47665 4.02537,-9.97271 4.02537,-19.94542 0,-10.18951 -3.80173,-19.94542 -3.80174,-9.75591 -14.31242,-16.04306 -10.28705,-6.28714 -30.19026,-6.28714 -8.498,0 -21.46863,0 -12.747,-0.2168 -23.25768,-0.4336 z"
     id="text2"
     class="signika"
     aria-label="DB" />
  <!-- Claim: Daniel Bölts -->
</svg>
