<?xml version="1.0" encoding="UTF-8" standalone="no"?>
<svg
   width="3400"
   height="1000"
   viewBox="0 0 3400 1000"
   version="1.1"
   id="svg3"
   sodipodi:docname="DB_logo_C_hexagon_rounded_signika_claim_outline_darkmode.svg"
   inkscape:version="1.4.2 (ebf0e94, 2025-05-08)"
   xmlns:inkscape="http://www.inkscape.org/namespaces/inkscape"
   xmlns:sodipodi="http://sodipodi.sourceforge.net/DTD/sodipodi-0.dtd"
   xmlns="http://www.w3.org/2000/svg"
   xmlns:svg="http://www.w3.org/2000/svg">
  <sodipodi:namedview
     id="namedview1"
     pagecolor="#ffffff"
     bordercolor="#000000"
     borderopacity="0.25"
     inkscape:showpageshadow="2"
     inkscape:pageopacity="0.0"
     inkscape:pagecheckerboard="0"
     inkscape:deskcolor="#d1d1d1"
     inkscape:zoom="0.70882353"
     inkscape:cx="532.57261"
     inkscape:cy="500.12448"
     inkscape:window-width="2560"
     inkscape:window-height="1369"
     inkscape:window-x="-8"
     inkscape:window-y="-8"
     inkscape:window-maximized="1"
     inkscape:current-layer="svg3" />
  <defs
     id="defs2">
    <style
       type="text/css"
       id="style1"><![CDATA[
      @import url('https://fonts.googleapis.com/css2?family=Signika:wght@600;700;800&display=swap');
      .signika { font-family: 'Signika', sans-serif; }
    ]]></style>
  </defs>
  <!-- Rounded Hexagon -->
  <path
     d="m 435.18595,121.3916 q 20,10 300,152 10,10 10,20 v 360 q 0,10 -10,20 -280,142 -300,152 -20,-10 -300,-152 -10,-10 -10,-20 v -360 q 0,-10 10,-20 280,-142 300,-152 z"
     fill="none"
     stroke="#000000"
     stroke-width="28"
     id="path2"
     style="fill:none;stroke:#ffffff;stroke-opacity:1" />
  <!-- DB Text -->
  <path
     style="font-weight:500;font-size:380px;font-family:Signika, sans-serif;-inkscape-font-specification:'Signika, sans-serif Medium';dominant-baseline:middle;text-anchor:middle;fill:#ffffff"
     d="m 417.70573,473.20144 q 0,22.23 -3.04,42.56 -2.85,20.33 -11.59,38 -8.74,17.67 -26.22,31.73 -8.36,6.84 -20.14,11.21 -11.78,4.18 -24.13,6.27 -12.35,1.9 -22.61,1.9 -15.58,0 -28.88,-0.19 -13.3,-0.19 -26.98,-0.57 -13.49,-0.38 -30.02,-0.76 l -2.66,-2.47 v -255.36 l 2.66,-2.47 q 16.34,-0.57 29.83,-0.76 13.68,-0.38 26.98,-0.38 13.49,0 29.07,0 10.26,0 22.61,1.9 12.35,1.9 24.13,6.27 11.97,4.18 20.14,11.02 17.29,14.06 26.03,31.73 8.74,17.67 11.78,38 3.04,20.33 3.04,42.37 z m -46.17,0 q 0,-16.53 -2.28,-33.44 -2.09,-16.91 -8.55,-30.97 -6.27,-14.06 -18.62,-22.8 -12.16,-8.74 -32.3,-8.74 -11.4,0 -21.47,0 -9.88,-0.19 -22.42,-0.38 v 192.28 q 12.54,0 22.42,0.19 10.07,0 21.47,0 20.14,0 32.3,-8.74 12.35,-8.74 18.62,-22.99 6.46,-14.25 8.55,-31.16 2.28,-16.91 2.28,-33.25 z m 100.32016,-130.15 q 21.09,-0.38 41.23,-0.76 20.33,-0.38 39.33,-0.38 27.74,0 46.36,7.98 18.81,7.98 28.31,23.37 9.5,15.2 9.5,37.24 0,14.25 -6.46,26.6 -6.27,12.35 -17.29,20.33 -11.02,7.98 -25.27,9.5 v -5.7 q 15.77,0.57 29.83,9.88 14.06,9.12 22.8,24.51 8.74,15.39 8.74,34.2 0,22.23 -9.88,39.14 -9.88,16.91 -30.21,26.22 -20.14,9.31 -51.3,9.31 -22.8,0 -43.32,-0.57 -20.52,-0.38 -42.37,-0.57 l -2.66,-2.47 v -255.36 z m 41.42,228.76 q 11.59,-0.19 22.42,-0.19 11.02,-0.19 20.9,-0.19 14.63,0 23.75,-3.99 9.31,-4.18 14.25,-10.83 5.13,-6.65 7.03,-14.25 2.09,-7.79 2.09,-14.63 0,-9.31 -4.18,-19.57 -4.18,-10.26 -15.01,-17.48 -10.64,-7.22 -30.02,-7.22 h -58.52 v -33.63 h 54.72 q 16.91,0 25.84,-5.7 8.93,-5.89 12.35,-14.44 3.42,-8.74 3.42,-17.48 0,-8.93 -3.23,-17.48 -3.23,-8.55 -12.16,-14.06 -8.74,-5.51 -25.65,-5.51 -7.22,0 -18.24,0 -10.83,-0.19 -19.76,-0.38 z"
     id="text2"
     class="signika"
     aria-label="DB" />
  <!-- Claim: Daniel Bölts -->
  <path
     style="font-weight:600;font-size:466.667px;font-family:Signika, sans-serif;-inkscape-font-specification:'Signika, sans-serif Semi-Bold';fill:#969696;fill-opacity:1"
     d="m 1148.664,465.5399 q 0,27.30002 -3.7333,52.50004 -3.7333,24.96668 -14.7,46.6667 -10.7334,21.70001 -32.6667,38.96669 -10.5,8.4 -25.2,13.76668 -14.7,5.13333 -30.1001,7.46667 -15.4,2.56667 -28.2333,2.56667 -19.36668,0 -36.8667,-0.23334 -17.50001,-0.23333 -35.23336,-0.7 -17.73334,-0.46667 -38.03335,-0.93333 l -3.26667,-3.26667 V 308.73979 l 3.26667,-3.26667 q 20.06668,-0.7 37.80002,-0.93333 17.73335,-0.46667 35.23336,-0.46667 17.73335,0 37.10003,0 12.8333,0 28.2333,2.33334 15.6334,2.33333 30.3334,7.46667 14.7,5.13333 24.9667,13.53334 21.7,17.26668 32.4333,39.20003 10.9667,21.70001 14.7001,46.90003 3.9666,24.96668 3.9666,52.03337 z m -64.6334,0 q 0,-19.36668 -2.5666,-39.20003 -2.5667,-19.83335 -9.8,-36.16669 -7,-16.56668 -21,-26.60002 -13.7667,-10.26667 -36.6334,-10.26667 -13.3,0 -25.20002,-0.23334 -11.66668,-0.23333 -25.66669,-0.23333 v 225.16682 q 14.00001,-0.23333 25.66669,0 11.90002,0 25.20002,0 22.8667,0 36.6334,-10.03334 14,-10.26667 21,-26.83335 7.2333,-16.80001 9.8,-36.63336 2.5666,-19.83334 2.5666,-38.96669 z m 97.1091,96.1334 q 0,-27.53335 12.3666,-45.03336 12.6001,-17.50002 33.1334,-25.90002 20.7667,-8.40001 45.5,-8.40001 11.6667,0 27.7667,0.93334 16.3334,0.7 29.8667,3.73333 v 39.43336 q -11.2,-2.56667 -26.1333,-3.03333 -14.7001,-0.7 -26.1334,-0.7 -18.4333,0 -27.5334,9.56667 -9.1,9.33334 -9.1,25.20002 0,11.90001 6.7667,19.83334 7,7.93334 19.6,7.93334 15.4,0 31.9667,-10.96667 16.8,-10.96668 28.2334,-31.03336 l 8.8666,41.53337 q -8.8666,10.26667 -20.7666,21.23334 -11.9,10.73334 -28.0001,17.96668 -15.8666,7.23334 -36.6333,7.23334 -23.5667,0 -39.2,-10.26667 -15.4001,-10.50001 -23.1001,-26.36669 -7.4666,-16.10001 -7.4666,-32.90002 z m 203.4668,35.46669 q -1.8667,8.16667 -7.9334,17.50001 -5.8333,9.33334 -12.1333,13.76668 -17.7333,-1.63333 -29.1667,-10.03334 -11.2,-8.40001 -17.0333,-20.30001 -5.8334,-12.13335 -7.4667,-24.50002 V 471.1399 q 0,-18.20001 -8.6333,-26.60002 -8.6334,-8.63333 -25.4334,-8.63333 -16.3333,0 -34.5334,5.13333 -18.2,4.90001 -36.6333,11.20001 -6.7667,-7.46667 -10.9667,-19.60001 -3.9667,-12.13335 -4.9,-23.80002 14.7,-6.06667 32.4334,-10.73334 17.9666,-4.66667 36.1667,-7.23334 18.2,-2.8 33.6,-2.8 21.7,0 39.6667,7.93334 17.9667,7.93334 28.9333,25.43335 10.9667,17.26668 10.9667,45.50003 v 95.20007 q 0,11.66667 2.8,20.53334 3.0333,8.63334 10.2667,14.46668 z m 75.6002,-206.50014 q 17.9666,0 26.3667,11.90001 8.4,11.66667 8.4,31.96668 v 190.40014 q -6.3,1.16666 -14.4667,1.63333 -7.9334,0.46667 -15.8667,0.46667 -7.7,0 -15.8667,-0.46667 -7.9333,-0.46667 -14.7,-1.63333 v -231.2335 l 3.0334,-3.03333 z m 166.3668,180.36679 q 0,12.83334 2.1,24.26668 2.1,11.43334 7.7,20.06668 -6.7667,5.36667 -16.8001,9.33334 -10.0333,3.73334 -21.4666,3.73334 -18.2,0 -25.4334,-9.80001 -7,-9.8 -7,-28.23335 V 481.40658 q 0,-19.36668 -5.1333,-28.46669 -4.9,-9.10001 -19.1334,-9.10001 -9.5666,0 -21,4.90001 -11.4333,4.66667 -22.1667,14.23334 -10.7333,9.33334 -18.2,23.80002 v -55.53337 q 16.1,-16.80002 36.8667,-29.40003 21,-12.83334 45.9667,-12.83334 21.7,0 35.7,10.50001 14,10.26667 21,28.46669 7.0001,17.96668 7.0001,41.06669 z m 132.2997,53.90004 q -6.3,1.16666 -14.4667,1.63333 -7.9333,0.46667 -15.8667,0.46667 -7.9333,0 -16.1,-0.46667 -7.9333,-0.46667 -14.7,-1.63333 V 462.50656 q 0,-12.13334 -4.6667,-18.90001 -4.4333,-6.76667 -16.3333,-6.76667 h -6.3 q -2.5667,-10.26667 -2.5667,-21.00002 0,-5.36667 0.7,-10.96667 0.7,-5.6 1.8667,-11.20001 10.0333,-1.16666 19.6,-1.63333 9.5667,-0.46667 16.1,-0.46667 h 8.1667 q 20.7667,0 32.6667,13.06668 11.9,13.06667 11.9,35.70002 z m -75.1334,-295.63354 q 0,-5.83334 1.1667,-12.13334 1.4,-6.53334 3.7333,-12.13335 5.1333,-2.8 13.5333,-4.43333 8.6334,-1.86667 16.8,-1.86667 8.1667,0 17.0334,1.86667 8.8667,1.63333 13.3,4.43333 2.3333,5.60001 3.5,12.13335 1.4,6.53333 1.4,12.13334 0,5.6 -1.4,12.13334 -1.1667,6.53334 -3.5,11.90001 -4.4333,2.8 -13.3,4.66667 -8.8667,1.86667 -17.0334,1.86667 -8.1666,0 -17.0333,-1.63334 -8.6333,-1.86667 -13.3,-4.9 -2.3333,-5.36667 -3.7333,-11.90001 -1.1667,-6.53334 -1.1667,-12.13334 z m 162.1667,199.2668 v -42.70003 h 100.3334 v -5.83333 q 0,-13.30001 -3.7334,-24.50002 -3.7333,-11.20001 -12.1333,-17.96668 -8.4,-6.76667 -22.4,-6.76667 -20.3,0 -29.6334,17.03334 -9.1,16.80002 -9.1,48.7667 v 18.43335 q 0,18.90001 3.5,34.53336 3.7334,15.63334 14,24.96668 10.5,9.10001 30.3334,9.10001 16.8,0 32.4333,-4.43334 15.8667,-4.66667 30.3334,-11.43334 7,7.00001 11.4333,17.50001 4.6667,10.50001 5.8334,19.83335 -17.0334,12.36668 -41.0667,19.36668 -23.8,6.76667 -48.5334,6.76667 -29.4,0 -48.7667,-9.80001 -19.3667,-10.03334 -30.8,-27.06668 -11.2,-17.26668 -15.8667,-38.96669 -4.6667,-21.93335 -4.6667,-45.2667 0,-35.00003 10.7334,-62.76671 10.7333,-28.00002 33.1333,-44.33337 22.4001,-16.33334 57.1668,-16.33334 30.5666,0 51.5667,13.30001 21.2333,13.06667 32.2,35.46669 11.2,22.40001 11.2,50.40003 0,13.53335 -1.1667,22.86669 -1.1666,9.1 -3.7333,19.83334 z m 302.1672,51.33337 q 2.1,6.53334 3.5,14.23335 1.4,7.7 1.4,15.40001 0,3.26667 -0.2333,7 -0.2334,3.5 -1.1667,6.76667 -9.3333,1.4 -21.4667,2.56667 -12.1333,1.16667 -23.8,1.16667 -27.3,0 -39.9,-13.76668 -12.3667,-14.00001 -12.3667,-42.93336 v -285.6002 l 3.2667,-3.03334 h 23.5667 q 18.4333,0 25.6666,8.63334 7.2334,8.40001 7.2334,28.93336 v 239.40016 q 0,10.26668 4.6667,15.86668 4.6666,5.36667 14.7,5.36667 z m 160.9995,-274.40019 q 26.8334,-0.46667 52.5,-0.93333 25.9001,-0.46667 49.9334,-0.46667 33.3667,0 56.9334,9.56667 23.8,9.33334 36.1667,28.23336 12.6,18.66668 12.6,46.6667 0,17.26667 -7.9333,32.43335 -7.7001,14.93335 -21.0001,24.73335 -13.3,9.80001 -30.1,11.66668 v -7.23334 q 19.1334,0.93333 35.9334,12.60001 17.0333,11.43334 27.5333,30.33335 10.5,18.66668 10.5,41.30003 0,29.40002 -13.0666,50.1667 -12.8334,20.76668 -38.2667,31.73336 -25.4334,10.73334 -62.7667,10.73334 -27.5334,0 -54.3668,-0.7 -26.6,-0.46667 -54.6,-0.7 l -3.2667,-3.26667 V 308.73979 Z m 58.5667,276.96686 q 13.0667,-0.46667 25.2,-0.46667 12.3667,0 22.4001,0 16.5666,0 27.0666,-4.66667 10.5,-4.9 16.3334,-12.36667 5.8333,-7.70001 7.9333,-16.56668 2.3334,-8.86667 2.3334,-16.80001 0,-10.96668 -4.9,-22.63335 -4.6667,-11.90001 -16.8001,-20.06668 -11.9,-8.40001 -33.6,-8.40001 h -70 v -45.73336 h 65.1 q 18.6667,0 28.7,-6.53334 10.2667,-6.76667 14,-16.56668 3.9667,-9.80001 3.9667,-19.83335 0,-10.5 -3.7333,-20.06668 -3.7334,-9.56667 -13.7667,-15.86667 -10.0333,-6.30001 -28.7,-6.30001 -7.9334,0 -19.8334,0 -11.6666,-0.23333 -21.7,-0.46667 z m 409.9672,-73.50005 q 0,36.63336 -11.9,64.40004 -11.9,27.53336 -35.2333,42.70003 -23.1001,15.16668 -57.1668,15.16668 -34.5333,0 -57.8667,-15.40001 -23.1,-15.40001 -34.7667,-42.93336 -11.6666,-27.53335 -11.6666,-63.93338 0,-36.40003 11.6666,-63.93338 11.9001,-27.53335 35.0001,-42.93336 23.3333,-15.40001 57.6333,-15.40001 34.3001,0 57.6334,15.63334 23.3334,15.40001 35,42.93337 11.6667,27.30001 11.6667,63.70004 z m -146.0667,0 q 0,20.53335 3.2666,38.03336 3.5,17.26668 12.6,28.00002 9.1,10.50001 25.9,10.50001 17.2667,0 26.1334,-10.50001 8.8667,-10.73334 12.1333,-28.00002 3.2667,-17.50001 3.2667,-38.03336 0,-20.30001 -3.2667,-37.80003 -3.2666,-17.50001 -12.1333,-28.00002 -8.8667,-10.73334 -26.1334,-10.73334 -16.8,0 -25.9,10.73334 -9.1,10.50001 -12.6,28.00002 -3.2666,17.50002 -3.2666,37.80003 z M 2597.707,335.33981 q 0,-4.43334 0.7,-10.26668 0.9333,-6.06667 3.0333,-10.73334 5.1334,-3.26667 12.3667,-4.9 7.4667,-1.63333 14.2333,-1.63333 6.7667,0 14.0001,1.63333 7.4666,1.63333 12.6,4.9 1.8666,4.66667 2.8,10.73334 0.9333,5.83334 0.9333,10.26668 0,4.43334 -0.9333,10.50001 -0.9334,5.83333 -2.8,10.5 -5.1334,3.03334 -12.6,4.90001 -7.2334,1.63333 -14.0001,1.63333 -6.7666,0 -14.2333,-1.63333 -7.2333,-1.86667 -12.3667,-4.90001 -2.1,-4.66667 -3.0333,-10.5 -0.7,-6.06667 -0.7,-10.50001 z m 90.5334,0 q 0,-4.43334 0.9333,-10.26668 0.9334,-6.06667 2.8,-10.73334 5.1334,-3.26667 12.3667,-4.9 7.4667,-1.63333 14.2333,-1.63333 6.7667,0 14.0001,1.63333 7.4666,1.63333 12.6,4.9 2.1,4.66667 2.8,10.73334 0.9333,5.83334 0.9333,10.26668 0,4.43334 -0.9333,10.50001 -0.7,5.83333 -2.8,10.5 -5.1334,3.03334 -12.6,4.90001 -7.2334,1.63333 -14.0001,1.63333 -6.7666,0 -14.2333,-1.63333 -7.2333,-1.86667 -12.3667,-4.90001 -1.8666,-4.66667 -2.8,-10.5 -0.9333,-6.06667 -0.9333,-10.50001 z m 231.9334,244.5335 q 2.1,6.53334 3.5,14.23335 1.4,7.7 1.4,15.40001 0,3.26667 -0.2333,7 -0.2334,3.5 -1.1667,6.76667 -9.3333,1.4 -21.4667,2.56667 -12.1333,1.16667 -23.8,1.16667 -27.3,0 -39.9,-13.76668 -12.3667,-14.00001 -12.3667,-42.93336 v -285.6002 l 3.2667,-3.03334 h 23.5667 q 18.4333,0 25.6666,8.63334 7.2334,8.40001 7.2334,28.93336 v 239.40016 q 0,10.26668 4.6667,15.86668 4.6666,5.36667 14.7,5.36667 z m 50.6796,-220.03348 q 0,-20.30002 7.2334,-28.93336 7.2333,-8.63334 25.6667,-8.63334 h 23.3333 l 3.2667,3.26667 v 233.3335 q 0,9.8 4.4333,15.40001 4.6667,5.6 15.6334,5.6 h 28.9333 q 2.3333,6.53334 3.5,14.46668 1.1667,7.7 1.1667,15.16668 0,3.26667 -0.2334,7 0,3.5 -0.9333,6.76667 -12.3667,1.4 -27.5333,2.56667 -14.9334,1.16667 -28.9334,1.16667 -27.7667,0 -41.7667,-13.76668 -13.7667,-14.00001 -13.7667,-42.93336 z m 115.9668,32.90002 q 2.8,10.73334 2.8,21.70001 0,5.60001 -0.7,11.20001 -0.7,5.60001 -2.1,11.20001 l -81.9001,-1.4 -69.5334,1.4 q -2.5666,-10.73334 -2.5666,-22.40002 0,-10.5 2.5666,-21.70001 l 70.9334,1.16667 z M 3110.6205,608.34 q 0.4666,-10.03334 5.8333,-22.16668 5.3667,-12.36668 12.6,-19.36668 14.9334,7.93334 31.5,14.00001 16.5667,5.83333 33.3667,5.83333 16.1,0 24.9667,-6.3 9.1,-6.3 9.3334,-16.10001 0,-8.40001 -6.3001,-15.16668 -6.3,-6.76667 -18.9,-11.20001 l -26.6,-9.56667 q -16.1,-6.06667 -29.6333,-14.93334 -13.3,-9.10001 -21.2334,-22.16669 -7.7,-13.06667 -7.7,-31.26668 0,-22.63335 10.9667,-38.9667 10.9667,-16.56668 30.5667,-25.43335 19.6,-8.86667 45.0333,-8.86667 20.5334,0 43.4001,5.6 22.8666,5.36667 37.5667,12.60001 0.4666,7.23334 -1.8667,15.86668 -2.1,8.63334 -6.0667,16.10001 -3.9666,7.23334 -9.1,11.43334 -13.5333,-6.06667 -30.3333,-11.20001 -16.5667,-5.36667 -33.6001,-5.36667 -12.1333,0 -19.1333,6.06667 -6.7667,5.83334 -6.7667,14.70001 0,7.93334 5.6,13.30001 5.6,5.36667 17.2667,9.56668 l 28.9334,10.5 q 26.3666,9.33334 43.4,26.83336 17.2667,17.26667 17.2667,45.96669 0,33.60003 -25.9001,53.20004 -25.9,19.36668 -70.2333,19.36668 -24.9667,0 -46.6667,-6.76667 -21.7001,-6.76667 -37.5667,-16.10001 z"
     id="text3"
     class="signika"
     aria-label="Daniel Bölts" />
</svg>
