<?xml version="1.0" encoding="UTF-8" standalone="no"?>
<!-- Created with Inkscape (http://www.inkscape.org/) -->

<svg
   width="1096"
   height="480"
   viewBox="0 0 15.222222 6.6666666"
   version="1.1"
   id="svg1"
   xml:space="preserve"
   inkscape:version="1.4.2 (ebf0e94, 2025-05-08)"
   sodipodi:docname="image-placeholder.svg"
   inkscape:export-filename="image-placeholder.png"
   inkscape:export-xdpi="96"
   inkscape:export-ydpi="96"
   xmlns:inkscape="http://www.inkscape.org/namespaces/inkscape"
   xmlns:sodipodi="http://sodipodi.sourceforge.net/DTD/sodipodi-0.dtd"
   xmlns="http://www.w3.org/2000/svg"
   xmlns:svg="http://www.w3.org/2000/svg"><sodipodi:namedview
     id="namedview1"
     pagecolor="#ffffff"
     bordercolor="#000000"
     borderopacity="0.25"
     inkscape:showpageshadow="2"
     inkscape:pageopacity="0.0"
     inkscape:pagecheckerboard="true"
     inkscape:deskcolor="#d1d1d1"
     inkscape:document-units="px"
     inkscape:zoom="0.78840488"
     inkscape:cx="396.36995"
     inkscape:cy="358.31843"
     inkscape:window-width="1920"
     inkscape:window-height="1129"
     inkscape:window-x="-8"
     inkscape:window-y="-8"
     inkscape:window-maximized="1"
     inkscape:current-layer="layer1" /><defs
     id="defs1"><filter
       id="shadow"
       x="-0.035454545"
       y="-0.024374912"
       width="1.0845455"
       height="1.0581248"><feOffset
         dx="3"
         dy="3"
         result="off"
         id="feOffset1" /><feGaussianBlur
         in="off"
         stdDeviation="2"
         result="blur"
         id="feGaussianBlur1" /><feColorMatrix
         type="matrix"
         values="         0 0 0 0 0         0 0 0 0 0         0 0 0 0 0         0 0 0 0.35 0"
         id="feColorMatrix2" /><feMerge
         id="feMerge3"><feMergeNode
           id="feMergeNode2" /><feMergeNode
           in="SourceGraphic"
           id="feMergeNode3" /></feMerge></filter><filter
       id="shadow-1"
       x="-0.032773109"
       y="-0.03996118"
       width="1.0781513"
       height="1.0946295"><feOffset
         dx="3"
         dy="3"
         result="off"
         id="feOffset1-1" /><feGaussianBlur
         in="off"
         stdDeviation="2"
         result="blur"
         id="feGaussianBlur1-5" /><feColorMatrix
         type="matrix"
         values="         0 0 0 0 0         0 0 0 0 0         0 0 0 0 0         0 0 0 0.35 0"
         id="feColorMatrix2-2" /><feMerge
         id="feMerge3-7"><feMergeNode
           id="feMergeNode2-6" /><feMergeNode
           in="SourceGraphic"
           id="feMergeNode3-1" /></feMerge></filter><filter
       id="shadow-2"
       x="-0.043333333"
       y="-0.055714286"
       width="1.1033333"
       height="1.1328571"><feOffset
         dx="3"
         dy="3"
         result="off"
         id="feOffset1-2" /><feGaussianBlur
         in="off"
         stdDeviation="2"
         result="blur"
         id="feGaussianBlur1-1" /><feColorMatrix
         type="matrix"
         values="         0 0 0 0 0         0 0 0 0 0         0 0 0 0 0         0 0 0 0.35 0"
         id="feColorMatrix2-6" /><feMerge
         id="feMerge3-8"><feMergeNode
           id="feMergeNode2-5" /><feMergeNode
           in="SourceGraphic"
           id="feMergeNode3-7" /></feMerge></filter></defs><g
     inkscape:label="Ebene 1"
     inkscape:groupmode="layer"
     id="layer1"><rect
       style="fill:#e5e5e5;fill-opacity:0.5;stroke:none;stroke-width:0.0138682"
       id="rect1"
       width="15.208354"
       height="6.6527987"
       x="0.0069340626"
       y="0.0069340626" /><g
       transform="matrix(0.01978253,0,0,0.01978253,10.751066,1.9188825)"
       filter="url(#shadow)"
       id="g19"
       style="filter:url(#shadow-2)"><rect
         x="0"
         y="0"
         width="180"
         height="140"
         rx="18"
         class="outline fill-6"
         id="rect15"
         style="fill:#f2f2f2;stroke:#1a1a1a;stroke-width:6;stroke-linecap:round;stroke-linejoin:round" /><rect
         x="0"
         y="0"
         width="180"
         height="30"
         rx="18"
         class="outline fill-4"
         id="rect16"
         style="fill:#a9a9a9;stroke:#1a1a1a;stroke-width:6;stroke-linecap:round;stroke-linejoin:round" /><circle
         cx="20"
         cy="15"
         r="4"
         class="fill-2"
         id="circle16"
         style="fill:#4d4d4d" /><circle
         cx="34"
         cy="15"
         r="4"
         class="fill-2"
         id="circle17"
         style="fill:#4d4d4d" /><circle
         cx="48"
         cy="15"
         r="4"
         class="fill-2"
         id="circle18"
         style="fill:#4d4d4d" /><!-- Brackets --><path
         class="outline nofill"
         d="M 64,94 34,70 64,46"
         id="path18"
         style="fill:none;stroke:#1a1a1a;stroke-width:6;stroke-linecap:round;stroke-linejoin:round" /><path
         class="outline nofill"
         d="m 116,46 30,24 -30,24"
         id="path19"
         style="fill:none;stroke:#1a1a1a;stroke-width:6;stroke-linecap:round;stroke-linejoin:round" /></g><g
       transform="matrix(0.01281714,0,0,0.01025717,0.79047363,1.5742287)"
       filter="url(#shadow)"
       id="g7"><!-- Shield --><path
         class="outline fill-6"
         d="M 130,10 C 85,30 56,30 20,45 v 120 c 0,90 55,140 110,165 55,-25 110,-75 110,-165 V 45 C 205,30 175,30 130,10 Z"
         id="path4"
         style="fill:#f2f2f2;stroke:#1a1a1a;stroke-width:6;stroke-linecap:round;stroke-linejoin:round" /><!-- Inner rim --><path
         class="nofill outline"
         d="M 130,28 C 92,44 63,44 34,57 v 108 c 0,77 46,121 96,142 50,-21 96,-65 96,-142 V 57 C 197,44 167,44 130,28 Z"
         id="path5"
         style="fill:none;stroke:#1a1a1a;stroke-width:6;stroke-linecap:round;stroke-linejoin:round" /><!-- Lock shackle --><path
         class="outline fill-5"
         d="m 130,90 c -24,0 -42,18 -42,42 v 22 h 18 v -22 c 0,-14 10,-24 24,-24 14,0 24,10 24,24 v 22 h 18 v -22 c 0,-24 -18,-42 -42,-42 z"
         id="path6"
         style="fill:#d9d9d9;stroke:#1a1a1a;stroke-width:6;stroke-linecap:round;stroke-linejoin:round" /><!-- Lock body --><rect
         x="92"
         y="154"
         width="76"
         height="66"
         rx="10"
         class="outline fill-4"
         id="rect6"
         style="fill:#a9a9a9;stroke:#1a1a1a;stroke-width:6;stroke-linecap:round;stroke-linejoin:round" /><!-- Keyhole --><circle
         cx="130"
         cy="182"
         r="9"
         class="fill-2"
         id="circle6"
         style="fill:#4d4d4d" /><rect
         x="125.5"
         y="182"
         width="9"
         height="20"
         rx="4"
         class="fill-2"
         id="rect7"
         style="fill:#4d4d4d" /></g><g
       transform="matrix(0.01380688,0,0,0.01616238,5.2781793,1.738506)"
       filter="url(#shadow)"
       id="g15"
       style="filter:url(#shadow-1)"><path
         class="outline fill-6"
         d="M 90,80 C 72,80 56,68 52,52 48,32 64,14 84,12 94,0 114,-4 130,4 c 16,-10 40,-6 52,8 22,-4 44,10 48,30 20,2 34,18 34,36 0,22 -18,40 -40,40 -6,18 -26,30 -46,26 -16,12 -40,10 -54,-4 -18,8 -38,2 -46,-14 C 64,124 54,112 54,98 54,88 60,78 70,74"
         id="path14"
         style="fill:#f2f2f2;stroke:#1a1a1a;stroke-width:6;stroke-linecap:round;stroke-linejoin:round" /><circle
         cx="54"
         cy="164"
         r="12"
         class="outline fill-6"
         id="circle14"
         style="fill:#f2f2f2;stroke:#1a1a1a;stroke-width:6;stroke-linecap:round;stroke-linejoin:round" /><circle
         cx="34"
         cy="188"
         r="8"
         class="outline fill-6"
         id="circle15"
         style="fill:#f2f2f2;stroke:#1a1a1a;stroke-width:6;stroke-linecap:round;stroke-linejoin:round" /></g></g></svg>
